<svg width="500" height="500" viewBox="0 0 500 500" fill="none" xmlns="http://www.w3.org/2000/svg">
<path d="M195.03 57.2882C266.615 -10.3537 371.036 76.3049 307.109 158.106L236.254 238.375C165.269 324.53 160.644 391.266 201.472 449L55.2534 303.874C23.5576 271.07 24.7387 226.768 55.8973 195.993L195.03 57.2882Z" fill="white"/>
<rect x="313" y="173" width="154" height="155" rx="77" fill="white"/>
<path d="M273.224 308.788C240.265 275.509 239.931 232.833 264.189 206C220.867 253.314 192.943 288.136 178.354 332.558C157.236 386.32 186.27 440.736 206.75 453.334C284.743 503.313 370.365 405.398 299.684 333.843L273.224 308.788Z" fill="url(#paint0_linear_68_263)"/>
<defs>
<linearGradient id="paint0_linear_68_263" x1="248.503" y1="206" x2="248.503" y2="467" gradientUnits="userSpaceOnUse">
<stop stop-color="#5676FF"/>
<stop offset="1" stop-color="white"/>
</linearGradient>
</defs>
</svg>
