<svg width="500" height="500" viewBox="0 0 500 500" fill="none" xmlns="http://www.w3.org/2000/svg">
<path d="M191.978 53.6969C267.931 -15.0833 378.723 73.0336 310.896 156.211L235.717 237.831C160.4 325.435 155.494 393.295 198.812 452L43.6722 304.432C10.0425 271.076 11.2957 226.029 44.3554 194.735L191.978 53.6969Z" fill="#2F45FF"/>
<rect x="318" y="172" width="163" height="156" rx="78" fill="#2F45FF"/>
<path d="M275.819 309.757C240.734 275.841 240.378 232.347 266.201 205C220.084 253.22 190.358 288.71 174.828 333.982C152.348 388.775 183.255 444.233 205.057 457.072C288.081 508.008 379.227 408.218 303.987 335.292L275.819 309.757Z" fill="url(#paint0_linear_68_103)"/>
<defs>
<linearGradient id="paint0_linear_68_103" x1="249.503" y1="205" x2="249.503" y2="471" gradientUnits="userSpaceOnUse">
<stop/>
<stop offset="1" stop-color="#2F45FF"/>
</linearGradient>
</defs>
</svg>
